# xmcd
#
# Track frame offsets: 
#        150
#        22000
#        39203
#        64424
#        85291
#        107656
#        133567
#        150088
#
# Disc length: 2307 seconds
#
# Revision: 0
# Processed by: cddbd v1.5.2PL0 Copyright (c) Steve Scherf et al.
# Submitted via: ExactAudioCopy v1.1
#
DISCID=5a090108
DTITLE=Kris Barras Band - Kris Barras Band
DYEAR=2015
DGENRE=Blues Rock
TTITLE0=Never Too Late
TTITLE1=In Too Deep
TTITLE2=Watching Over Me
TTITLE3=Rocky Road
TTITLE4=Rise
TTITLE5=It Is What It Is
TTITLE6=I Don't Want The Blues
TTITLE7=Crank Up
EXTD=
EXTT0=
EXTT1=
EXTT2=
EXTT3=
EXTT4=
EXTT5=
EXTT6=
EXTT7=
PLAYORDER=
